<svg width="24" xmlns="http://www.w3.org/2000/svg" height="24" fill="none"><g class="fills"><rect rx="0" ry="0" width="24" height="24" transform="matrix(1.000000, 0.000000, 0.000000, 1.000000, 0.000000, 0.000000)" class="frame-background"/></g><g class="frame-children"><path d="M22.000,16.920L22.000,19.920C22.002,20.483,21.767,21.021,21.352,21.402C20.937,21.783,20.381,21.971,19.820,21.920C16.743,21.586,13.787,20.534,11.190,18.850C8.774,17.315,6.725,15.266,5.190,12.850C3.500,10.241,2.448,7.271,2.120,4.180C2.069,3.621,2.256,3.066,2.635,2.652C3.013,2.237,3.549,2.001,4.110,2.000L7.110,2.000C8.114,1.990,8.970,2.726,9.110,3.720C9.237,4.680,9.471,5.623,9.810,6.530C10.085,7.261,9.909,8.085,9.360,8.640L8.090,9.910C9.514,12.414,11.586,14.486,14.090,15.910L15.360,14.640C15.915,14.091,16.739,13.915,17.470,14.190C18.377,14.529,19.320,14.763,20.280,14.890C21.286,15.032,22.025,15.905,22.000,16.920ZZ" style="fill: none;" class="fills"/><g stroke-linecap="round" stroke-linejoin="round" class="strokes"><path d="M22.000,16.920L22.000,19.920C22.002,20.483,21.767,21.021,21.352,21.402C20.937,21.783,20.381,21.971,19.820,21.920C16.743,21.586,13.787,20.534,11.190,18.850C8.774,17.315,6.725,15.266,5.190,12.850C3.500,10.241,2.448,7.271,2.120,4.180C2.069,3.621,2.256,3.066,2.635,2.652C3.013,2.237,3.549,2.001,4.110,2.000L7.110,2.000C8.114,1.990,8.970,2.726,9.110,3.720C9.237,4.680,9.471,5.623,9.810,6.530C10.085,7.261,9.909,8.085,9.360,8.640L8.090,9.910C9.514,12.414,11.586,14.486,14.090,15.910L15.360,14.640C15.915,14.091,16.739,13.915,17.470,14.190C18.377,14.529,19.320,14.763,20.280,14.890C21.286,15.032,22.025,15.905,22.000,16.920ZZ" style="fill: none; stroke-width: 2; stroke: rgb(255, 255, 255); stroke-opacity: 1;" class="stroke-shape"/></g><path d="M14.050,2.000C18.249,2.442,21.576,5.744,22.050,9.940" style="fill: none;" class="fills"/><g stroke-linecap="round" stroke-linejoin="round" class="strokes"><path d="M14.050,2.000C18.249,2.442,21.576,5.744,22.050,9.940" style="fill: none; stroke-width: 2; stroke: rgb(255, 255, 255); stroke-opacity: 1;" class="stroke-shape"/></g><path d="M14.050,6.000C16.063,6.397,17.628,7.983,18.000,10.000" style="fill: none;" class="fills"/><g stroke-linecap="round" stroke-linejoin="round" class="strokes"><path d="M14.050,6.000C16.063,6.397,17.628,7.983,18.000,10.000" style="fill: none; stroke-width: 2; stroke: rgb(255, 255, 255); stroke-opacity: 1;" class="stroke-shape"/></g></g></svg>