<svg width="21" xmlns="http://www.w3.org/2000/svg" height="23" fill="none"><g style="fill: rgb(0, 0, 0);"><ellipse cy="18.5" transform="matrix(1.000000, 0.000000, 0.000000, 1.000000, 0.000000, 0.000000)" style="fill: none;" ry="3" fill="none" rx="3" cx="4.5" class="fills"/><g fill="none" stroke-linecap="round" stroke-linejoin="round" class="strokes"><ellipse cx="4.5" cy="18.5" rx="3" ry="3" transform="matrix(1.000000, 0.000000, 0.000000, 1.000000, 0.000000, 0.000000)" style="fill: none; stroke-width: 2; stroke: rgb(0, 0, 0); stroke-opacity: 1;" class="stroke-shape"/></g><path d="M7.500,18.500L16.000,18.500C17.933,18.500,19.500,16.933,19.500,15.000C19.500,13.067,17.933,11.500,16.000,11.500L5.000,11.500C3.067,11.500,1.500,9.933,1.500,8.000C1.500,6.067,3.067,4.500,5.000,4.500L13.500,4.500" fill="none" style="fill: none;" class="fills"/><g fill="none" stroke-linecap="round" stroke-linejoin="round" class="strokes"><path d="M7.500,18.500L16.000,18.500C17.933,18.500,19.500,16.933,19.500,15.000C19.500,13.067,17.933,11.500,16.000,11.500L5.000,11.500C3.067,11.500,1.500,9.933,1.500,8.000C1.500,6.067,3.067,4.500,5.000,4.500L13.500,4.500" style="fill: none; stroke-width: 2; stroke: rgb(0, 0, 0); stroke-opacity: 1;" class="stroke-shape"/></g><ellipse cy="4.5" transform="matrix(1.000000, 0.000000, 0.000000, 1.000000, 0.000000, 0.000000)" style="fill: none;" ry="3" fill="none" rx="3" cx="16.5" class="fills"/><g fill="none" stroke-linecap="round" stroke-linejoin="round" class="strokes"><ellipse cx="16.5" cy="4.5" rx="3" ry="3" transform="matrix(1.000000, 0.000000, 0.000000, 1.000000, 0.000000, 0.000000)" style="fill: none; stroke-width: 2; stroke: rgb(0, 0, 0); stroke-opacity: 1;" class="stroke-shape"/></g></g></svg>