<svg width="24" xmlns="http://www.w3.org/2000/svg" height="24" fill="none"><g style="fill: rgb(0, 0, 0);"><path d="M16.000,21.000L16.000,19.000C16.000,16.791,14.209,15.000,12.000,15.000L6.000,15.000C3.791,15.000,2.000,16.791,2.000,19.000L2.000,21.000" fill="none" style="fill: none;" class="fills"/><g fill="none" stroke-linecap="round" stroke-linejoin="round" class="strokes"><path d="M16.000,21.000L16.000,19.000C16.000,16.791,14.209,15.000,12.000,15.000L6.000,15.000C3.791,15.000,2.000,16.791,2.000,19.000L2.000,21.000" style="fill: none; stroke-width: 2; stroke: rgb(0, 0, 0); stroke-opacity: 1;" class="stroke-shape"/></g><ellipse cy="7" transform="matrix(1.000000, 0.000000, 0.000000, 1.000000, 0.000000, 0.000000)" style="fill: none;" ry="4" fill="none" rx="4" cx="9" class="fills"/><g fill="none" stroke-linecap="round" stroke-linejoin="round" class="strokes"><ellipse cx="9" cy="7" rx="4" ry="4" transform="matrix(1.000000, 0.000000, 0.000000, 1.000000, 0.000000, 0.000000)" style="fill: none; stroke-width: 2; stroke: rgb(0, 0, 0); stroke-opacity: 1;" class="stroke-shape"/></g><path d="M22.000,21.000L22.000,19.000C21.999,17.177,20.765,15.586,19.000,15.130" fill="none" style="fill: none;" class="fills"/><g fill="none" stroke-linecap="round" stroke-linejoin="round" class="strokes"><path d="M22.000,21.000L22.000,19.000C21.999,17.177,20.765,15.586,19.000,15.130" style="fill: none; stroke-width: 2; stroke: rgb(0, 0, 0); stroke-opacity: 1;" class="stroke-shape"/></g><path d="M16.000,3.130C17.770,3.583,19.008,5.178,19.008,7.005C19.008,8.832,17.770,10.427,16.000,10.880" fill="none" style="fill: none;" class="fills"/><g fill="none" stroke-linecap="round" stroke-linejoin="round" class="strokes"><path d="M16.000,3.130C17.770,3.583,19.008,5.178,19.008,7.005C19.008,8.832,17.770,10.427,16.000,10.880" style="fill: none; stroke-width: 2; stroke: rgb(0, 0, 0); stroke-opacity: 1;" class="stroke-shape"/></g></g></svg>